<?xml version="1.0" encoding="UTF-8" standalone="no"?>
<!DOCTYPE svg PUBLIC "-//W3C//DTD SVG 1.1//EN"
 "http://www.w3.org/Graphics/SVG/1.1/DTD/svg11.dtd">
<!-- Generated by graphviz version 12.2.1 (20241206.2353)
 -->
<!-- Title: G Pages: 1 -->
<svg width="335pt" height="263pt"
 viewBox="0.00 0.00 335.39 263.00" xmlns="http://www.w3.org/2000/svg" xmlns:xlink="http://www.w3.org/1999/xlink">
<g id="graph0" class="graph" transform="scale(1 1) rotate(0) translate(4 259)">
<title>G</title>
<polygon fill="white" stroke="none" points="-4,4 -4,-259 331.39,-259 331.39,4 -4,4"/>
<!-- Mod1 -->
<g id="node1" class="node">
<title>Mod1</title>
<ellipse fill="lightgrey" stroke="lightgrey" cx="202.39" cy="-237" rx="33.44" ry="18"/>
<text text-anchor="middle" x="202.39" y="-231.95" font-family="Times,serif" font-size="14.00">Mod1</text>
</g>
<!-- ClassA -->
<g id="node2" class="node">
<title>ClassA</title>
<ellipse fill="lightgrey" stroke="lightgrey" cx="136.39" cy="-164" rx="37.53" ry="18"/>
<text text-anchor="middle" x="136.39" y="-158.95" font-family="Times,serif" font-size="14.00">ClassA</text>
</g>
<!-- Mod1&#45;&gt;ClassA -->
<g id="edge2" class="edge">
<title>Mod1&#45;&gt;ClassA</title>
<path fill="none" stroke="black" d="M188.07,-220.59C179.54,-211.42 168.53,-199.57 158.86,-189.17"/>
<polygon fill="black" stroke="black" points="161.54,-186.92 152.17,-181.98 156.42,-191.68 161.54,-186.92"/>
</g>
<!-- ClassB -->
<g id="node3" class="node">
<title>ClassB</title>
<ellipse fill="lightgrey" stroke="lightgrey" cx="269.39" cy="-164" rx="37.02" ry="18"/>
<text text-anchor="middle" x="269.39" y="-158.95" font-family="Times,serif" font-size="14.00">ClassB</text>
</g>
<!-- Mod1&#45;&gt;ClassB -->
<g id="edge3" class="edge">
<title>Mod1&#45;&gt;ClassB</title>
<path fill="none" stroke="black" d="M216.93,-220.59C225.59,-211.42 236.77,-199.57 246.58,-189.17"/>
<polygon fill="black" stroke="black" points="249.06,-191.64 253.38,-181.97 243.97,-186.84 249.06,-191.64"/>
</g>
<!-- ClassA&#45;&gt;ClassB -->
<g id="edge1" class="edge">
<title>ClassA&#45;&gt;ClassB</title>
<path fill="none" stroke="magenta" stroke-dasharray="5,2" d="M174.15,-164C188.59,-164 205.27,-164 220.6,-164"/>
<polygon fill="magenta" stroke="magenta" points="220.49,-167.5 230.49,-164 220.49,-160.5 220.49,-167.5"/>
<text text-anchor="middle" x="203.15" y="-170.2" font-family="Times,serif" font-size="14.00" fill="magenta">extends</text>
</g>
<!-- A1 -->
<g id="node4" class="node">
<title>A1</title>
<ellipse fill="lightgrey" stroke="lightgrey" cx="76.39" cy="-91" rx="27" ry="18"/>
<text text-anchor="middle" x="76.39" y="-85.95" font-family="Times,serif" font-size="14.00">A1</text>
</g>
<!-- ClassA&#45;&gt;A1 -->
<g id="edge4" class="edge">
<title>ClassA&#45;&gt;A1</title>
<path fill="none" stroke="black" d="M122.78,-146.89C114.97,-137.65 105.02,-125.88 96.35,-115.61"/>
<polygon fill="black" stroke="black" points="99.24,-113.61 90.11,-108.23 93.89,-118.13 99.24,-113.61"/>
</g>
<!-- A2 -->
<g id="node7" class="node">
<title>A2</title>
<ellipse fill="none" stroke="black" cx="148.39" cy="-91" rx="27" ry="18"/>
<text text-anchor="middle" x="148.39" y="-85.95" font-family="Times,serif" font-size="14.00">A2</text>
</g>
<!-- ClassA&#45;&gt;A2 -->
<g id="edge5" class="edge">
<title>ClassA&#45;&gt;A2</title>
<path fill="none" stroke="black" d="M139.3,-145.81C140.59,-138.14 142.16,-128.89 143.62,-120.24"/>
<polygon fill="black" stroke="black" points="147.05,-120.96 145.26,-110.52 140.14,-119.8 147.05,-120.96"/>
</g>
<!-- B1 -->
<g id="node5" class="node">
<title>B1</title>
<ellipse fill="lightgrey" stroke="lightgrey" cx="228.39" cy="-91" rx="27" ry="18"/>
<text text-anchor="middle" x="228.39" y="-85.95" font-family="Times,serif" font-size="14.00" fill="magenta">B1</text>
</g>
<!-- ClassB&#45;&gt;B1 -->
<g id="edge8" class="edge">
<title>ClassB&#45;&gt;B1</title>
<path fill="none" stroke="black" d="M259.67,-146.17C254.81,-137.74 248.8,-127.34 243.36,-117.92"/>
<polygon fill="black" stroke="black" points="246.54,-116.44 238.51,-109.53 240.48,-119.94 246.54,-116.44"/>
</g>
<!-- B2 -->
<g id="node6" class="node">
<title>B2</title>
<ellipse fill="none" stroke="black" cx="300.39" cy="-91" rx="27" ry="18"/>
<text text-anchor="middle" x="300.39" y="-85.95" font-family="Times,serif" font-size="14.00" fill="magenta">B2</text>
</g>
<!-- ClassB&#45;&gt;B2 -->
<g id="edge11" class="edge">
<title>ClassB&#45;&gt;B2</title>
<path fill="none" stroke="black" d="M276.74,-146.17C280.25,-138.13 284.55,-128.29 288.51,-119.22"/>
<polygon fill="black" stroke="black" points="291.7,-120.66 292.49,-110.09 285.28,-117.86 291.7,-120.66"/>
</g>
<!-- A1_1 -->
<g id="node8" class="node">
<title>A1_1</title>
<ellipse fill="none" stroke="black" cx="31.39" cy="-18" rx="31.39" ry="18"/>
<text text-anchor="middle" x="31.39" y="-12.95" font-family="Times,serif" font-size="14.00">A1_1</text>
</g>
<!-- A1&#45;&gt;A1_1 -->
<g id="edge6" class="edge">
<title>A1&#45;&gt;A1_1</title>
<path fill="none" stroke="black" d="M66.18,-73.89C60.71,-65.27 53.85,-54.44 47.67,-44.69"/>
<polygon fill="black" stroke="black" points="50.68,-42.9 42.37,-36.33 44.77,-46.65 50.68,-42.9"/>
</g>
<!-- A1_2 -->
<g id="node9" class="node">
<title>A1_2</title>
<ellipse fill="none" stroke="black" cx="112.39" cy="-18" rx="31.39" ry="18"/>
<text text-anchor="middle" x="112.39" y="-12.95" font-family="Times,serif" font-size="14.00">A1_2</text>
</g>
<!-- A1&#45;&gt;A1_2 -->
<g id="edge7" class="edge">
<title>A1&#45;&gt;A1_2</title>
<path fill="none" stroke="black" d="M84.74,-73.53C88.97,-65.2 94.2,-54.88 98.97,-45.47"/>
<polygon fill="black" stroke="black" points="102,-47.23 103.4,-36.73 95.76,-44.06 102,-47.23"/>
</g>
<!-- B1_1 -->
<g id="node10" class="node">
<title>B1_1</title>
<ellipse fill="none" stroke="black" cx="210.39" cy="-18" rx="30.88" ry="18"/>
<text text-anchor="middle" x="210.39" y="-12.95" font-family="Times,serif" font-size="14.00">B1_1</text>
</g>
<!-- B1&#45;&gt;B1_1 -->
<g id="edge9" class="edge">
<title>B1&#45;&gt;B1_1</title>
<path fill="none" stroke="black" d="M224.03,-72.81C222.07,-65.05 219.69,-55.68 217.48,-46.95"/>
<polygon fill="black" stroke="black" points="220.93,-46.33 215.08,-37.5 214.14,-48.05 220.93,-46.33"/>
</g>
<!-- B1_2 -->
<g id="node11" class="node">
<title>B1_2</title>
<ellipse fill="none" stroke="black" cx="290.39" cy="-18" rx="30.88" ry="18"/>
<text text-anchor="middle" x="290.39" y="-12.95" font-family="Times,serif" font-size="14.00">B1_2</text>
</g>
<!-- B1&#45;&gt;B1_2 -->
<g id="edge10" class="edge">
<title>B1&#45;&gt;B1_2</title>
<path fill="none" stroke="black" d="M241.54,-74.94C249.65,-65.66 260.23,-53.54 269.47,-42.96"/>
<polygon fill="black" stroke="black" points="271.9,-45.5 275.84,-35.67 266.62,-40.9 271.9,-45.5"/>
</g>
</g>
</svg>
