<?xml version="1.0" encoding="UTF-8" standalone="no"?>
<!DOCTYPE svg PUBLIC "-//W3C//DTD SVG 1.1//EN"
 "http://www.w3.org/Graphics/SVG/1.1/DTD/svg11.dtd">
<!-- Generated by graphviz version 12.2.1 (20241206.2353)
 -->
<!-- Title: G Pages: 1 -->
<svg width="527pt" height="263pt"
 viewBox="0.00 0.00 527.39 263.00" xmlns="http://www.w3.org/2000/svg" xmlns:xlink="http://www.w3.org/1999/xlink">
<g id="graph0" class="graph" transform="scale(1 1) rotate(0) translate(4 259)">
<title>G</title>
<polygon fill="white" stroke="none" points="-4,4 -4,-259 523.39,-259 523.39,4 -4,4"/>
<!-- Mod1 -->
<g id="node1" class="node">
<title>Mod1</title>
<ellipse fill="lightgrey" stroke="lightgrey" cx="289.39" cy="-237" rx="33.44" ry="18"/>
<text text-anchor="middle" x="289.39" y="-231.95" font-family="Times,serif" font-size="14.00">Mod1</text>
</g>
<!-- ClassA -->
<g id="node2" class="node">
<title>ClassA</title>
<ellipse fill="lightgrey" stroke="lightgrey" cx="156.39" cy="-164" rx="37.53" ry="18"/>
<text text-anchor="middle" x="156.39" y="-158.95" font-family="Times,serif" font-size="14.00">ClassA</text>
</g>
<!-- Mod1&#45;&gt;ClassA -->
<g id="edge2" class="edge">
<title>Mod1&#45;&gt;ClassA</title>
<path fill="none" stroke="black" d="M266.22,-223.63C245.35,-212.49 214.38,-195.96 190.65,-183.29"/>
<polygon fill="black" stroke="black" points="192.45,-180.28 181.98,-178.66 189.15,-186.45 192.45,-180.28"/>
</g>
<!-- ClassB -->
<g id="node3" class="node">
<title>ClassB</title>
<ellipse fill="lightgrey" stroke="lightgrey" cx="289.39" cy="-164" rx="37.02" ry="18"/>
<text text-anchor="middle" x="289.39" y="-158.95" font-family="Times,serif" font-size="14.00">ClassB</text>
</g>
<!-- Mod1&#45;&gt;ClassB -->
<g id="edge3" class="edge">
<title>Mod1&#45;&gt;ClassB</title>
<path fill="none" stroke="black" d="M289.39,-218.81C289.39,-211.23 289.39,-202.1 289.39,-193.54"/>
<polygon fill="black" stroke="black" points="292.89,-193.54 289.39,-183.54 285.89,-193.54 292.89,-193.54"/>
</g>
<!-- ClassC -->
<g id="node12" class="node">
<title>ClassC</title>
<ellipse fill="lightgrey" stroke="lightgrey" cx="422.39" cy="-164" rx="37.02" ry="18"/>
<text text-anchor="middle" x="422.39" y="-158.95" font-family="Times,serif" font-size="14.00">ClassC</text>
</g>
<!-- Mod1&#45;&gt;ClassC -->
<g id="edge12" class="edge">
<title>Mod1&#45;&gt;ClassC</title>
<path fill="none" stroke="black" d="M312.56,-223.63C333.43,-212.49 364.4,-195.96 388.14,-183.29"/>
<polygon fill="black" stroke="black" points="389.63,-186.45 396.81,-178.66 386.34,-180.28 389.63,-186.45"/>
</g>
<!-- ClassA&#45;&gt;ClassB -->
<g id="edge1" class="edge">
<title>ClassA&#45;&gt;ClassB</title>
<path fill="none" stroke="magenta" stroke-dasharray="5,2" d="M194.15,-164C208.59,-164 225.27,-164 240.6,-164"/>
<polygon fill="magenta" stroke="magenta" points="240.49,-167.5 250.49,-164 240.49,-160.5 240.49,-167.5"/>
<text text-anchor="middle" x="223.15" y="-170.2" font-family="Times,serif" font-size="14.00" fill="magenta">extends</text>
</g>
<!-- A1 -->
<g id="node4" class="node">
<title>A1</title>
<ellipse fill="lightgrey" stroke="lightgrey" cx="105.39" cy="-91" rx="27" ry="18"/>
<text text-anchor="middle" x="105.39" y="-85.95" font-family="Times,serif" font-size="14.00">A1</text>
</g>
<!-- ClassA&#45;&gt;A1 -->
<g id="edge4" class="edge">
<title>ClassA&#45;&gt;A1</title>
<path fill="none" stroke="black" d="M144.56,-146.53C138.21,-137.68 130.24,-126.6 123.16,-116.73"/>
<polygon fill="black" stroke="black" points="126.02,-114.72 117.34,-108.64 120.33,-118.8 126.02,-114.72"/>
</g>
<!-- A2 -->
<g id="node7" class="node">
<title>A2</title>
<ellipse fill="none" stroke="black" cx="177.39" cy="-91" rx="27" ry="18"/>
<text text-anchor="middle" x="177.39" y="-85.95" font-family="Times,serif" font-size="14.00">A2</text>
</g>
<!-- ClassA&#45;&gt;A2 -->
<g id="edge5" class="edge">
<title>ClassA&#45;&gt;A2</title>
<path fill="none" stroke="black" d="M161.47,-145.81C163.77,-138.05 166.54,-128.68 169.12,-119.95"/>
<polygon fill="black" stroke="black" points="172.44,-121.06 171.92,-110.48 165.73,-119.08 172.44,-121.06"/>
</g>
<!-- B1 -->
<g id="node5" class="node">
<title>B1</title>
<ellipse fill="lightgrey" stroke="lightgrey" cx="262.39" cy="-91" rx="27" ry="18"/>
<text text-anchor="middle" x="262.39" y="-85.95" font-family="Times,serif" font-size="14.00" fill="magenta">B1</text>
</g>
<!-- ClassB&#45;&gt;B1 -->
<g id="edge8" class="edge">
<title>ClassB&#45;&gt;B1</title>
<path fill="none" stroke="black" d="M282.85,-145.81C279.83,-137.85 276.15,-128.19 272.76,-119.27"/>
<polygon fill="black" stroke="black" points="276.04,-118.06 269.22,-109.95 269.5,-120.55 276.04,-118.06"/>
</g>
<!-- B2 -->
<g id="node6" class="node">
<title>B2</title>
<ellipse fill="none" stroke="black" cx="334.39" cy="-91" rx="27" ry="18"/>
<text text-anchor="middle" x="334.39" y="-85.95" font-family="Times,serif" font-size="14.00" fill="magenta">B2</text>
</g>
<!-- ClassB&#45;&gt;B2 -->
<g id="edge11" class="edge">
<title>ClassB&#45;&gt;B2</title>
<path fill="none" stroke="black" d="M299.83,-146.53C305.3,-137.9 312.13,-127.13 318.26,-117.45"/>
<polygon fill="black" stroke="black" points="321.11,-119.49 323.51,-109.17 315.2,-115.74 321.11,-119.49"/>
</g>
<!-- ClassB&#45;&gt;ClassC -->
<g id="edge15" class="edge">
<title>ClassB&#45;&gt;ClassC</title>
<path fill="none" stroke="magenta" stroke-dasharray="5,2" d="M326.79,-164C341.51,-164 358.59,-164 374.21,-164"/>
<polygon fill="magenta" stroke="magenta" points="373.76,-167.5 383.76,-164 373.76,-160.5 373.76,-167.5"/>
<text text-anchor="middle" x="355.89" y="-170.2" font-family="Times,serif" font-size="14.00" fill="magenta">extends</text>
</g>
<!-- A1_1 -->
<g id="node8" class="node">
<title>A1_1</title>
<ellipse fill="none" stroke="black" cx="31.39" cy="-18" rx="31.39" ry="18"/>
<text text-anchor="middle" x="31.39" y="-12.95" font-family="Times,serif" font-size="14.00">A1_1</text>
</g>
<!-- A1&#45;&gt;A1_1 -->
<g id="edge6" class="edge">
<title>A1&#45;&gt;A1_1</title>
<path fill="none" stroke="black" d="M90.42,-75.63C80.29,-65.92 66.7,-52.88 55.11,-41.76"/>
<polygon fill="black" stroke="black" points="57.84,-39.53 48.2,-35.13 52.99,-44.58 57.84,-39.53"/>
</g>
<!-- A1_2 -->
<g id="node9" class="node">
<title>A1_2</title>
<ellipse fill="none" stroke="black" cx="112.39" cy="-18" rx="31.39" ry="18"/>
<text text-anchor="middle" x="112.39" y="-12.95" font-family="Times,serif" font-size="14.00">A1_2</text>
</g>
<!-- A1&#45;&gt;A1_2 -->
<g id="edge7" class="edge">
<title>A1&#45;&gt;A1_2</title>
<path fill="none" stroke="black" d="M107.09,-72.81C107.84,-65.14 108.75,-55.89 109.61,-47.24"/>
<polygon fill="black" stroke="black" points="113.07,-47.83 110.56,-37.54 106.1,-47.14 113.07,-47.83"/>
</g>
<!-- B1_1 -->
<g id="node10" class="node">
<title>B1_1</title>
<ellipse fill="none" stroke="black" cx="195.39" cy="-18" rx="30.88" ry="18"/>
<text text-anchor="middle" x="195.39" y="-12.95" font-family="Times,serif" font-size="14.00">B1_1</text>
</g>
<!-- B1&#45;&gt;B1_1 -->
<g id="edge9" class="edge">
<title>B1&#45;&gt;B1_1</title>
<path fill="none" stroke="black" d="M248.51,-75.29C239.56,-65.8 227.72,-53.26 217.49,-42.42"/>
<polygon fill="black" stroke="black" points="220.17,-40.15 210.76,-35.28 215.07,-44.96 220.17,-40.15"/>
</g>
<!-- B1_2 -->
<g id="node11" class="node">
<title>B1_2</title>
<ellipse fill="none" stroke="black" cx="275.39" cy="-18" rx="30.88" ry="18"/>
<text text-anchor="middle" x="275.39" y="-12.95" font-family="Times,serif" font-size="14.00">B1_2</text>
</g>
<!-- B1&#45;&gt;B1_2 -->
<g id="edge10" class="edge">
<title>B1&#45;&gt;B1_2</title>
<path fill="none" stroke="black" d="M265.54,-72.81C266.94,-65.14 268.64,-55.89 270.22,-47.24"/>
<polygon fill="black" stroke="black" points="273.64,-47.98 272,-37.52 266.76,-46.72 273.64,-47.98"/>
</g>
<!-- C1 -->
<g id="node13" class="node">
<title>C1</title>
<ellipse fill="none" stroke="black" cx="420.39" cy="-91" rx="27" ry="18"/>
<text text-anchor="middle" x="420.39" y="-85.95" font-family="Times,serif" font-size="14.00" fill="magenta">C1</text>
</g>
<!-- ClassC&#45;&gt;C1 -->
<g id="edge13" class="edge">
<title>ClassC&#45;&gt;C1</title>
<path fill="none" stroke="black" d="M421.91,-145.81C421.69,-138.14 421.43,-128.89 421.19,-120.24"/>
<polygon fill="black" stroke="black" points="424.69,-120.44 420.91,-110.54 417.7,-120.64 424.69,-120.44"/>
</g>
<!-- C2 -->
<g id="node14" class="node">
<title>C2</title>
<ellipse fill="none" stroke="black" cx="492.39" cy="-91" rx="27" ry="18"/>
<text text-anchor="middle" x="492.39" y="-85.95" font-family="Times,serif" font-size="14.00" fill="magenta">C2</text>
</g>
<!-- ClassC&#45;&gt;C2 -->
<g id="edge14" class="edge">
<title>ClassC&#45;&gt;C2</title>
<path fill="none" stroke="black" d="M437.93,-147.24C447.46,-137.57 459.82,-125.03 470.36,-114.35"/>
<polygon fill="black" stroke="black" points="472.73,-116.92 477.26,-107.34 467.75,-112.01 472.73,-116.92"/>
</g>
</g>
</svg>
