<?xml version="1.0" encoding="UTF-8" standalone="no"?>
<!DOCTYPE svg PUBLIC "-//W3C//DTD SVG 1.1//EN"
 "http://www.w3.org/Graphics/SVG/1.1/DTD/svg11.dtd">
<!-- Generated by graphviz version 12.2.1 (20241206.2353)
 -->
<!-- Title: G Pages: 1 -->
<svg width="512pt" height="384pt"
 viewBox="0.00 0.00 512.16 383.50" xmlns="http://www.w3.org/2000/svg" xmlns:xlink="http://www.w3.org/1999/xlink">
<g id="graph0" class="graph" transform="scale(1 1) rotate(0) translate(4 379.5)">
<title>G</title>
<polygon fill="white" stroke="none" points="-4,4 -4,-379.5 508.16,-379.5 508.16,4 -4,4"/>
<!-- Model -->
<g id="node1" class="node">
<title>Model</title>
<ellipse fill="none" stroke="black" cx="297" cy="-353.5" rx="35.49" ry="18"/>
<ellipse fill="none" stroke="black" cx="297" cy="-353.5" rx="39.49" ry="22"/>
<text text-anchor="middle" x="297" y="-348.45" font-family="Times,serif" font-size="14.00">Model</text>
</g>
<!-- P1 -->
<g id="node2" class="node">
<title>P1</title>
<ellipse fill="none" stroke="green" cx="258" cy="-272.5" rx="27" ry="18"/>
<ellipse fill="none" stroke="green" cx="258" cy="-272.5" rx="31" ry="22"/>
<text text-anchor="middle" x="258" y="-267.45" font-family="Times,serif" font-size="14.00">P1</text>
</g>
<!-- Model&#45;&gt;P1 -->
<g id="edge18" class="edge">
<title>Model&#45;&gt;P1</title>
<path fill="none" stroke="black" d="M286.96,-332.16C282.73,-323.59 277.71,-313.43 273.05,-304"/>
<polygon fill="black" stroke="black" points="276.24,-302.55 268.68,-295.13 269.97,-305.65 276.24,-302.55"/>
</g>
<!-- P2 -->
<g id="node3" class="node">
<title>P2</title>
<ellipse fill="none" stroke="green" cx="351" cy="-272.5" rx="27" ry="18"/>
<ellipse fill="none" stroke="green" cx="351" cy="-272.5" rx="31" ry="22"/>
<text text-anchor="middle" x="351" y="-267.45" font-family="Times,serif" font-size="14.00">P2</text>
</g>
<!-- Model&#45;&gt;P2 -->
<g id="edge19" class="edge">
<title>Model&#45;&gt;P2</title>
<path fill="none" stroke="black" d="M310.63,-332.56C316.92,-323.35 324.52,-312.24 331.42,-302.15"/>
<polygon fill="black" stroke="black" points="334.14,-304.36 336.9,-294.13 328.36,-300.41 334.14,-304.36"/>
</g>
<!-- ClassA -->
<g id="node4" class="node">
<title>ClassA</title>
<ellipse fill="none" stroke="green" cx="103" cy="-176" rx="37.53" ry="18"/>
<ellipse fill="none" stroke="green" cx="103" cy="-176" rx="41.53" ry="22"/>
<text text-anchor="middle" x="103" y="-170.95" font-family="Times,serif" font-size="14.00">ClassA</text>
</g>
<!-- P1&#45;&gt;ClassA -->
<g id="edge1" class="edge">
<title>P1&#45;&gt;ClassA</title>
<path fill="none" stroke="black" d="M234.79,-257.35C209.53,-241.95 168.79,-217.11 139.29,-199.12"/>
<polygon fill="black" stroke="black" points="141.4,-196.31 131.04,-194.1 137.76,-202.29 141.4,-196.31"/>
</g>
<!-- ClassB -->
<g id="node5" class="node">
<title>ClassB</title>
<ellipse fill="none" stroke="green" cx="227" cy="-176" rx="37.02" ry="18"/>
<ellipse fill="none" stroke="green" cx="227" cy="-176" rx="41.02" ry="22"/>
<text text-anchor="middle" x="227" y="-170.95" font-family="Times,serif" font-size="14.00">ClassB</text>
</g>
<!-- P1&#45;&gt;ClassB -->
<g id="edge2" class="edge">
<title>P1&#45;&gt;ClassB</title>
<path fill="none" stroke="black" d="M251.27,-250.99C247.23,-238.66 241.99,-222.7 237.42,-208.76"/>
<polygon fill="black" stroke="black" points="240.84,-207.97 234.4,-199.56 234.19,-210.15 240.84,-207.97"/>
</g>
<!-- ClassC -->
<g id="node6" class="node">
<title>ClassC</title>
<ellipse fill="none" stroke="green" cx="351" cy="-176" rx="37.02" ry="18"/>
<ellipse fill="none" stroke="green" cx="351" cy="-176" rx="41.02" ry="22"/>
<text text-anchor="middle" x="351" y="-170.95" font-family="Times,serif" font-size="14.00">ClassC</text>
</g>
<!-- P1&#45;&gt;ClassC -->
<g id="edge3" class="edge">
<title>P1&#45;&gt;ClassC</title>
<path fill="none" stroke="black" d="M285.26,-261.82C299.89,-255.44 317.28,-245.79 329,-232.5 334.96,-225.74 339.41,-217.18 342.69,-208.81"/>
<polygon fill="black" stroke="black" points="345.94,-210.12 345.86,-199.53 339.31,-207.86 345.94,-210.12"/>
</g>
<!-- IntfaceD -->
<g id="node17" class="node">
<title>IntfaceD</title>
<ellipse fill="none" stroke="black" cx="457" cy="-176" rx="43.16" ry="18"/>
<ellipse fill="none" stroke="black" cx="457" cy="-176" rx="47.16" ry="22"/>
<text text-anchor="middle" x="457" y="-170.95" font-family="Times,serif" font-size="14.00">IntfaceD</text>
</g>
<!-- P2&#45;&gt;IntfaceD -->
<g id="edge15" class="edge">
<title>P2&#45;&gt;IntfaceD</title>
<path fill="none" stroke="black" d="M369.95,-254.61C385.82,-240.46 408.74,-220.03 427.08,-203.68"/>
<polygon fill="black" stroke="black" points="429.4,-206.3 434.53,-197.03 424.74,-201.07 429.4,-206.3"/>
</g>
<!-- ClassA&#45;&gt;ClassB -->
<g id="edge20" class="edge">
<title>ClassA&#45;&gt;ClassB</title>
<path fill="none" stroke="magenta" stroke-dasharray="5,2" d="M144.98,-176C154.37,-176 164.45,-176 174.22,-176"/>
<polygon fill="magenta" stroke="magenta" points="173.97,-179.5 183.97,-176 173.97,-172.5 173.97,-179.5"/>
<text text-anchor="middle" x="165.26" y="-182.2" font-family="Times,serif" font-size="14.00" fill="magenta">base</text>
</g>
<!-- A1 -->
<g id="node7" class="node">
<title>A1</title>
<ellipse fill="none" stroke="green" cx="103" cy="-95" rx="27" ry="18"/>
<ellipse fill="none" stroke="green" cx="103" cy="-95" rx="31" ry="22"/>
<text text-anchor="middle" x="103" y="-89.95" font-family="Times,serif" font-size="14.00">A1</text>
</g>
<!-- ClassA&#45;&gt;A1 -->
<g id="edge4" class="edge">
<title>ClassA&#45;&gt;A1</title>
<path fill="none" stroke="black" d="M103,-153.83C103,-146.04 103,-137.02 103,-128.46"/>
<polygon fill="black" stroke="black" points="106.5,-128.74 103,-118.74 99.5,-128.74 106.5,-128.74"/>
</g>
<!-- A2 -->
<g id="node8" class="node">
<title>A2</title>
<ellipse fill="none" stroke="green" cx="27" cy="-95" rx="27" ry="18"/>
<text text-anchor="middle" x="27" y="-89.95" font-family="Times,serif" font-size="14.00">A2</text>
</g>
<!-- ClassA&#45;&gt;A2 -->
<g id="edge5" class="edge">
<title>ClassA&#45;&gt;A2</title>
<path fill="none" stroke="black" d="M84.6,-155.88C73.86,-144.71 60.23,-130.54 48.93,-118.79"/>
<polygon fill="black" stroke="black" points="51.69,-116.61 42.23,-111.83 46.64,-121.47 51.69,-116.61"/>
</g>
<!-- ClassA&#45;&gt;IntfaceD -->
<g id="edge17" class="edge">
<title>ClassA&#45;&gt;IntfaceD</title>
<path fill="none" stroke="red" stroke-dasharray="1,5" d="M134.47,-190.64C177.37,-208.82 256.72,-236.08 325.25,-224.46 355.74,-219.29 388.36,-207.34 413.52,-196.6"/>
<polygon fill="red" stroke="red" points="414.68,-199.92 422.44,-192.7 411.87,-193.51 414.68,-199.92"/>
<text text-anchor="middle" x="293" y="-219.2" font-family="Times,serif" font-size="14.00" fill="red">implements</text>
</g>
<!-- ClassB&#45;&gt;ClassC -->
<g id="edge12" class="edge">
<title>ClassB&#45;&gt;ClassC</title>
<path fill="none" stroke="magenta" stroke-dasharray="5,2" d="M268.29,-176C278.02,-176 288.51,-176 298.65,-176"/>
<polygon fill="magenta" stroke="magenta" points="298.38,-179.5 308.38,-176 298.38,-172.5 298.38,-179.5"/>
<text text-anchor="middle" x="289" y="-182.2" font-family="Times,serif" font-size="14.00" fill="magenta">base</text>
</g>
<!-- B1 -->
<g id="node9" class="node">
<title>B1</title>
<ellipse fill="none" stroke="magenta" cx="251" cy="-95" rx="27" ry="18"/>
<text text-anchor="middle" x="251" y="-89.95" font-family="Times,serif" font-size="14.00">B1</text>
</g>
<!-- ClassB&#45;&gt;B1 -->
<g id="edge8" class="edge">
<title>ClassB&#45;&gt;B1</title>
<path fill="none" stroke="black" d="M233.43,-153.83C236.23,-144.63 239.54,-133.73 242.53,-123.88"/>
<polygon fill="black" stroke="black" points="245.84,-125.01 245.4,-114.43 239.15,-122.98 245.84,-125.01"/>
</g>
<!-- B2 -->
<g id="node10" class="node">
<title>B2</title>
<ellipse fill="none" stroke="magenta" cx="179" cy="-95" rx="27" ry="18"/>
<text text-anchor="middle" x="179" y="-89.95" font-family="Times,serif" font-size="14.00">B2</text>
</g>
<!-- ClassB&#45;&gt;B2 -->
<g id="edge11" class="edge">
<title>ClassB&#45;&gt;B2</title>
<path fill="none" stroke="black" d="M214.64,-154.66C208.53,-144.61 201.1,-132.38 194.61,-121.69"/>
<polygon fill="black" stroke="black" points="197.72,-120.06 189.53,-113.34 191.73,-123.7 197.72,-120.06"/>
</g>
<!-- C1 -->
<g id="node11" class="node">
<title>C1</title>
<ellipse fill="none" stroke="magenta" cx="395" cy="-95" rx="27" ry="18"/>
<text text-anchor="middle" x="395" y="-89.95" font-family="Times,serif" font-size="14.00">C1</text>
</g>
<!-- ClassC&#45;&gt;C1 -->
<g id="edge13" class="edge">
<title>ClassC&#45;&gt;C1</title>
<path fill="none" stroke="black" d="M362.33,-154.66C367.83,-144.78 374.5,-132.8 380.38,-122.24"/>
<polygon fill="black" stroke="black" points="383.38,-124.06 385.19,-113.62 377.26,-120.65 383.38,-124.06"/>
</g>
<!-- C2 -->
<g id="node12" class="node">
<title>C2</title>
<ellipse fill="none" stroke="magenta" cx="323" cy="-95" rx="27" ry="18"/>
<text text-anchor="middle" x="323" y="-89.95" font-family="Times,serif" font-size="14.00">C2</text>
</g>
<!-- ClassC&#45;&gt;C2 -->
<g id="edge14" class="edge">
<title>ClassC&#45;&gt;C2</title>
<path fill="none" stroke="black" d="M343.64,-154.24C340.32,-144.88 336.35,-133.68 332.79,-123.62"/>
<polygon fill="black" stroke="black" points="336.13,-122.58 329.49,-114.32 329.54,-124.92 336.13,-122.58"/>
</g>
<!-- A1&#45;1 -->
<g id="node13" class="node">
<title>A1&#45;1</title>
<ellipse fill="none" stroke="black" cx="42" cy="-18" rx="29.86" ry="18"/>
<text text-anchor="middle" x="42" y="-12.95" font-family="Times,serif" font-size="14.00">A1&#45;1</text>
</g>
<!-- A1&#45;&gt;A1&#45;1 -->
<g id="edge6" class="edge">
<title>A1&#45;&gt;A1&#45;1</title>
<path fill="none" stroke="black" d="M87.92,-75.46C79.95,-65.66 70.08,-53.52 61.53,-43.01"/>
<polygon fill="black" stroke="black" points="64.42,-41.02 55.4,-35.47 58.99,-45.44 64.42,-41.02"/>
</g>
<!-- A1&#45;2 -->
<g id="node14" class="node">
<title>A1&#45;2</title>
<ellipse fill="none" stroke="black" cx="120" cy="-18" rx="29.86" ry="18"/>
<text text-anchor="middle" x="120" y="-12.95" font-family="Times,serif" font-size="14.00">A1&#45;2</text>
</g>
<!-- A1&#45;&gt;A1&#45;2 -->
<g id="edge7" class="edge">
<title>A1&#45;&gt;A1&#45;2</title>
<path fill="none" stroke="black" d="M107.74,-73.11C109.55,-65.12 111.64,-55.88 113.58,-47.31"/>
<polygon fill="black" stroke="black" points="116.96,-48.24 115.76,-37.71 110.13,-46.69 116.96,-48.24"/>
</g>
<!-- B1_1 -->
<g id="node15" class="node">
<title>B1_1</title>
<ellipse fill="none" stroke="black" cx="233" cy="-18" rx="30.88" ry="18"/>
<text text-anchor="middle" x="233" y="-12.95" font-family="Times,serif" font-size="14.00">B1_1</text>
</g>
<!-- B1&#45;&gt;B1_1 -->
<g id="edge9" class="edge">
<title>B1&#45;&gt;B1_1</title>
<path fill="none" stroke="black" d="M246.92,-76.98C244.81,-68.22 242.19,-57.31 239.8,-47.32"/>
<polygon fill="black" stroke="black" points="243.22,-46.59 237.48,-37.68 236.41,-48.22 243.22,-46.59"/>
</g>
<!-- B1_2 -->
<g id="node16" class="node">
<title>B1_2</title>
<ellipse fill="none" stroke="black" cx="313" cy="-18" rx="30.88" ry="18"/>
<text text-anchor="middle" x="313" y="-12.95" font-family="Times,serif" font-size="14.00">B1_2</text>
</g>
<!-- B1&#45;&gt;B1_2 -->
<g id="edge10" class="edge">
<title>B1&#45;&gt;B1_2</title>
<path fill="none" stroke="black" d="M263.55,-78.82C271.92,-68.69 283.12,-55.14 292.75,-43.5"/>
<polygon fill="black" stroke="black" points="295.41,-45.78 299.08,-35.84 290.01,-41.32 295.41,-45.78"/>
</g>
<!-- D1 -->
<g id="node18" class="node">
<title>D1</title>
<ellipse fill="none" stroke="black" cx="467" cy="-95" rx="27" ry="18"/>
<text text-anchor="middle" x="467" y="-89.95" font-family="Times,serif" font-size="14.00">D1</text>
</g>
<!-- IntfaceD&#45;&gt;D1 -->
<g id="edge16" class="edge">
<title>IntfaceD&#45;&gt;D1</title>
<path fill="none" stroke="black" d="M459.68,-153.83C460.82,-144.8 462.17,-134.12 463.4,-124.42"/>
<polygon fill="black" stroke="black" points="466.84,-125.1 464.63,-114.74 459.9,-124.22 466.84,-125.1"/>
</g>
</g>
</svg>
