<?xml version="1.0" encoding="UTF-8" standalone="no"?>
<!DOCTYPE svg PUBLIC "-//W3C//DTD SVG 1.1//EN"
 "http://www.w3.org/Graphics/SVG/1.1/DTD/svg11.dtd">
<!-- Generated by graphviz version 12.2.1 (20241206.2353)
 -->
<!-- Title: G Pages: 1 -->
<svg width="428pt" height="260pt"
 viewBox="0.00 0.00 428.45 260.00" xmlns="http://www.w3.org/2000/svg" xmlns:xlink="http://www.w3.org/1999/xlink">
<g id="graph0" class="graph" transform="scale(1 1) rotate(0) translate(4 256)">
<title>G</title>
<polygon fill="white" stroke="none" points="-4,4 -4,-256 424.45,-256 424.45,4 -4,4"/>
<!-- key -->
<g id="node1" class="node">
<title>key</title>
<text text-anchor="start" x="23.5" y="-232.7" font-family="Times,serif" font-size="14.00">import</text>
<text text-anchor="start" x="33.25" y="-212.2" font-family="Times,serif" font-size="14.00">child</text>
<text text-anchor="start" x="10" y="-191.7" font-family="Times,serif" font-size="14.00">reference</text>
<text text-anchor="start" x="25" y="-171.2" font-family="Times,serif" font-size="14.00">item 4</text>
</g>
<!-- key2 -->
<g id="node2" class="node">
<title>key2</title>
<text text-anchor="start" x="131.25" y="-232.7" font-family="Times,serif" font-size="14.00"> </text>
<text text-anchor="start" x="131.25" y="-212.2" font-family="Times,serif" font-size="14.00"> </text>
<text text-anchor="start" x="131.25" y="-191.7" font-family="Times,serif" font-size="14.00"> </text>
<text text-anchor="start" x="131.25" y="-171.2" font-family="Times,serif" font-size="14.00"> </text>
</g>
<!-- key&#45;&gt;key2 -->
<g id="edge1" class="edge">
<title>key:e&#45;&gt;key2:w</title>
<path fill="none" stroke="magenta" stroke-dasharray="5,2" d="M63.25,-237.75C87.96,-237.75 96.82,-237.75 116.95,-237.75"/>
<polygon fill="magenta" stroke="magenta" points="116.74,-241.25 126.74,-237.75 116.74,-234.25 116.74,-241.25"/>
</g>
<!-- key&#45;&gt;key2 -->
<g id="edge2" class="edge">
<title>key:e&#45;&gt;key2:w</title>
<path fill="none" stroke="black" d="M63.25,-217.25C87.96,-217.25 96.82,-217.25 116.95,-217.25"/>
<polygon fill="black" stroke="black" points="116.74,-220.75 126.74,-217.25 116.74,-213.75 116.74,-220.75"/>
</g>
<!-- key&#45;&gt;key2 -->
<g id="edge3" class="edge">
<title>key:e&#45;&gt;key2:w</title>
<path fill="none" stroke="black" stroke-dasharray="5,2" d="M63.25,-196.75C87.96,-196.75 96.82,-196.75 116.95,-196.75"/>
<polygon fill="black" stroke="black" points="116.74,-200.25 126.74,-196.75 116.74,-193.25 116.74,-200.25"/>
</g>
<!-- key&#45;&gt;key2 -->
<g id="edge4" class="edge">
<title>key:e&#45;&gt;key2:w</title>
<path fill="none" stroke="black" d="M63.25,-176.25C87.96,-176.25 96.82,-176.25 116.95,-176.25"/>
<polygon fill="black" stroke="black" points="116.74,-179.75 126.74,-176.25 116.74,-172.75 116.74,-179.75"/>
</g>
<!-- Model -->
<g id="node3" class="node">
<title>Model</title>
<ellipse fill="none" stroke="black" cx="217.12" cy="-207" rx="35.49" ry="18"/>
<ellipse fill="none" stroke="black" cx="217.12" cy="-207" rx="39.49" ry="22"/>
<text text-anchor="middle" x="217.12" y="-201.95" font-family="Times,serif" font-size="14.00">Model</text>
</g>
<!-- P1 -->
<g id="node4" class="node">
<title>P1</title>
<ellipse fill="none" stroke="black" cx="144.12" cy="-103" rx="27" ry="18"/>
<ellipse fill="none" stroke="black" cx="144.12" cy="-103" rx="31" ry="22"/>
<text text-anchor="middle" x="144.12" y="-97.95" font-family="Times,serif" font-size="14.00">P1</text>
</g>
<!-- Model&#45;&gt;P1 -->
<g id="edge7" class="edge">
<title>Model&#45;&gt;P1</title>
<path fill="none" stroke="black" d="M203.05,-186.33C192,-170.9 176.48,-149.21 164.14,-131.97"/>
<polygon fill="black" stroke="black" points="167.21,-130.24 158.54,-124.15 161.52,-134.32 167.21,-130.24"/>
</g>
<!-- P2 -->
<g id="node5" class="node">
<title>P2</title>
<ellipse fill="none" stroke="black" cx="266.12" cy="-103" rx="27" ry="18"/>
<ellipse fill="none" stroke="black" cx="266.12" cy="-103" rx="31" ry="22"/>
<text text-anchor="middle" x="266.12" y="-97.95" font-family="Times,serif" font-size="14.00">P2</text>
</g>
<!-- Model&#45;&gt;P2 -->
<g id="edge8" class="edge">
<title>Model&#45;&gt;P2</title>
<path fill="none" stroke="black" d="M227.04,-185.36C234.06,-170.75 243.59,-150.91 251.48,-134.48"/>
<polygon fill="black" stroke="black" points="254.56,-136.16 255.74,-125.63 248.25,-133.12 254.56,-136.16"/>
</g>
<!-- P1&#45;&gt;P2 -->
<g id="edge5" class="edge">
<title>P1&#45;&gt;P2</title>
<path fill="none" stroke="magenta" stroke-dasharray="5,2" d="M175.54,-103C190.2,-103 207.86,-103 223.69,-103"/>
<polygon fill="magenta" stroke="magenta" points="223.3,-106.5 233.3,-103 223.3,-99.5 223.3,-106.5"/>
<text text-anchor="middle" x="205.12" y="-109.2" font-family="Times,serif" font-size="14.00" fill="magenta">imports</text>
</g>
<!-- ClassA -->
<g id="node7" class="node">
<title>ClassA</title>
<ellipse fill="none" stroke="black" cx="111.12" cy="-22" rx="37.53" ry="18"/>
<text text-anchor="middle" x="111.12" y="-16.95" font-family="Times,serif" font-size="14.00">ClassA</text>
</g>
<!-- P1&#45;&gt;ClassA -->
<g id="edge9" class="edge">
<title>P1&#45;&gt;ClassA</title>
<path fill="none" stroke="black" d="M135.63,-81.66C131.67,-72.19 126.91,-60.78 122.64,-50.56"/>
<polygon fill="black" stroke="black" points="125.92,-49.35 118.84,-41.47 119.46,-52.04 125.92,-49.35"/>
</g>
<!-- IntfaceD -->
<g id="node6" class="node">
<title>IntfaceD</title>
<ellipse fill="none" stroke="black" cx="278.12" cy="-22" rx="43.16" ry="18"/>
<ellipse fill="none" stroke="black" cx="278.12" cy="-22" rx="47.16" ry="22"/>
<text text-anchor="middle" x="278.12" y="-16.95" font-family="Times,serif" font-size="14.00">IntfaceD</text>
</g>
<!-- P2&#45;&gt;IntfaceD -->
<g id="edge6" class="edge">
<title>P2&#45;&gt;IntfaceD</title>
<path fill="none" stroke="black" d="M269.34,-80.83C270.52,-73.04 271.89,-64.02 273.19,-55.46"/>
<polygon fill="black" stroke="black" points="276.63,-56.14 274.67,-45.73 269.71,-55.09 276.63,-56.14"/>
</g>
<!-- ClassA&#45;&gt;IntfaceD -->
<g id="edge10" class="edge">
<title>ClassA&#45;&gt;IntfaceD</title>
<path fill="none" stroke="magenta" stroke-dasharray="5,2" d="M149.02,-22C169.78,-22 195.96,-22 219.31,-22"/>
<polygon fill="magenta" stroke="magenta" points="219,-25.5 229,-22 219,-18.5 219,-25.5"/>
<text text-anchor="middle" x="189.81" y="-28.2" font-family="Times,serif" font-size="14.00" fill="magenta">implements</text>
</g>
<!-- legend -->
<g id="node8" class="node">
<title>legend</title>
<ellipse fill="none" stroke="black" cx="310.12" cy="-207" rx="35.49" ry="18"/>
<text text-anchor="middle" x="310.12" y="-201.95" font-family="Times,serif" font-size="14.00">legend</text>
</g>
<!-- AST -->
<g id="node9" class="node">
<title>AST</title>
<ellipse fill="none" stroke="black" cx="392.12" cy="-207" rx="28.32" ry="18"/>
<text text-anchor="middle" x="392.12" y="-201.95" font-family="Times,serif" font-size="14.00">AST</text>
</g>
</g>
</svg>
