<?xml version="1.0" encoding="UTF-8" standalone="no"?>
<!DOCTYPE svg PUBLIC "-//W3C//DTD SVG 1.1//EN"
 "http://www.w3.org/Graphics/SVG/1.1/DTD/svg11.dtd">
<!-- Generated by graphviz version 12.2.1 (20241206.2353)
 -->
<!-- Title: G Pages: 1 -->
<svg width="365pt" height="263pt"
 viewBox="0.00 0.00 365.39 263.00" xmlns="http://www.w3.org/2000/svg" xmlns:xlink="http://www.w3.org/1999/xlink">
<g id="graph0" class="graph" transform="scale(1 1) rotate(0) translate(4 259)">
<title>G</title>
<polygon fill="white" stroke="none" points="-4,4 -4,-259 361.39,-259 361.39,4 -4,4"/>
<!-- ClassA -->
<g id="node1" class="node">
<title>ClassA</title>
<ellipse fill="none" stroke="black" cx="144.39" cy="-164" rx="37.53" ry="18"/>
<text text-anchor="middle" x="144.39" y="-158.95" font-family="Times,serif" font-size="14.00">ClassA</text>
</g>
<!-- ClassB -->
<g id="node2" class="node">
<title>ClassB</title>
<ellipse fill="none" stroke="black" cx="277.39" cy="-164" rx="37.02" ry="18"/>
<text text-anchor="middle" x="277.39" y="-158.95" font-family="Times,serif" font-size="14.00">ClassB</text>
</g>
<!-- ClassA&#45;&gt;ClassB -->
<g id="edge1" class="edge">
<title>ClassA&#45;&gt;ClassB</title>
<path fill="none" stroke="black" stroke-dasharray="5,2" d="M182.15,-164C196.59,-164 213.27,-164 228.6,-164"/>
<polygon fill="black" stroke="black" points="228.49,-167.5 238.49,-164 228.49,-160.5 228.49,-167.5"/>
<text text-anchor="middle" x="211.15" y="-170.2" font-family="Times,serif" font-size="14.00">extends</text>
</g>
<!-- A1 -->
<g id="node4" class="node">
<title>A1</title>
<ellipse fill="none" stroke="black" cx="96.39" cy="-91" rx="27" ry="18"/>
<text text-anchor="middle" x="96.39" y="-85.95" font-family="Times,serif" font-size="14.00">A1</text>
</g>
<!-- ClassA&#45;&gt;A1 -->
<g id="edge4" class="edge">
<title>ClassA&#45;&gt;A1</title>
<path fill="none" stroke="black" d="M133.26,-146.53C127.36,-137.81 119.99,-126.9 113.39,-117.14"/>
<polygon fill="black" stroke="black" points="116.48,-115.47 107.98,-109.14 110.68,-119.39 116.48,-115.47"/>
</g>
<!-- A2 -->
<g id="node5" class="node">
<title>A2</title>
<ellipse fill="none" stroke="black" cx="168.39" cy="-91" rx="27" ry="18"/>
<text text-anchor="middle" x="168.39" y="-85.95" font-family="Times,serif" font-size="14.00">A2</text>
</g>
<!-- ClassA&#45;&gt;A2 -->
<g id="edge5" class="edge">
<title>ClassA&#45;&gt;A2</title>
<path fill="none" stroke="black" d="M150.2,-145.81C152.85,-137.96 156.06,-128.47 159.04,-119.66"/>
<polygon fill="black" stroke="black" points="162.26,-121.06 162.15,-110.46 155.63,-118.82 162.26,-121.06"/>
</g>
<!-- B1 -->
<g id="node8" class="node">
<title>B1</title>
<ellipse fill="none" stroke="black" cx="258.39" cy="-91" rx="27" ry="18"/>
<text text-anchor="middle" x="258.39" y="-85.95" font-family="Times,serif" font-size="14.00">B1</text>
</g>
<!-- ClassB&#45;&gt;B1 -->
<g id="edge8" class="edge">
<title>ClassB&#45;&gt;B1</title>
<path fill="none" stroke="black" d="M272.79,-145.81C270.71,-138.05 268.21,-128.68 265.87,-119.95"/>
<polygon fill="black" stroke="black" points="269.31,-119.25 263.34,-110.49 262.54,-121.06 269.31,-119.25"/>
</g>
<!-- B2 -->
<g id="node11" class="node">
<title>B2</title>
<ellipse fill="none" stroke="black" cx="330.39" cy="-91" rx="27" ry="18"/>
<text text-anchor="middle" x="330.39" y="-85.95" font-family="Times,serif" font-size="14.00">B2</text>
</g>
<!-- ClassB&#45;&gt;B2 -->
<g id="edge11" class="edge">
<title>ClassB&#45;&gt;B2</title>
<path fill="none" stroke="black" d="M289.68,-146.53C296.36,-137.59 304.74,-126.36 312.16,-116.42"/>
<polygon fill="black" stroke="black" points="314.81,-118.73 317.99,-108.62 309.2,-114.54 314.81,-118.73"/>
</g>
<!-- Mod1 -->
<g id="node3" class="node">
<title>Mod1</title>
<ellipse fill="none" stroke="black" cx="210.39" cy="-237" rx="33.44" ry="18"/>
<text text-anchor="middle" x="210.39" y="-231.95" font-family="Times,serif" font-size="14.00">Mod1</text>
</g>
<!-- Mod1&#45;&gt;ClassA -->
<g id="edge2" class="edge">
<title>Mod1&#45;&gt;ClassA</title>
<path fill="none" stroke="black" d="M196.07,-220.59C187.54,-211.42 176.53,-199.57 166.86,-189.17"/>
<polygon fill="black" stroke="black" points="169.54,-186.92 160.17,-181.98 164.42,-191.68 169.54,-186.92"/>
</g>
<!-- Mod1&#45;&gt;ClassB -->
<g id="edge3" class="edge">
<title>Mod1&#45;&gt;ClassB</title>
<path fill="none" stroke="black" d="M224.93,-220.59C233.59,-211.42 244.77,-199.57 254.58,-189.17"/>
<polygon fill="black" stroke="black" points="257.06,-191.64 261.38,-181.97 251.97,-186.84 257.06,-191.64"/>
</g>
<!-- A1_1 -->
<g id="node6" class="node">
<title>A1_1</title>
<ellipse fill="none" stroke="black" cx="31.39" cy="-18" rx="31.39" ry="18"/>
<text text-anchor="middle" x="31.39" y="-12.95" font-family="Times,serif" font-size="14.00">A1_1</text>
</g>
<!-- A1&#45;&gt;A1_1 -->
<g id="edge6" class="edge">
<title>A1&#45;&gt;A1_1</title>
<path fill="none" stroke="black" d="M82.92,-75.29C74.24,-65.8 62.75,-53.26 52.83,-42.42"/>
<polygon fill="black" stroke="black" points="55.65,-40.31 46.31,-35.3 50.48,-45.04 55.65,-40.31"/>
</g>
<!-- A1_2 -->
<g id="node7" class="node">
<title>A1_2</title>
<ellipse fill="none" stroke="black" cx="112.39" cy="-18" rx="31.39" ry="18"/>
<text text-anchor="middle" x="112.39" y="-12.95" font-family="Times,serif" font-size="14.00">A1_2</text>
</g>
<!-- A1&#45;&gt;A1_2 -->
<g id="edge7" class="edge">
<title>A1&#45;&gt;A1_2</title>
<path fill="none" stroke="black" d="M100.26,-72.81C101.99,-65.14 104.08,-55.89 106.03,-47.24"/>
<polygon fill="black" stroke="black" points="109.44,-48.03 108.22,-37.51 102.61,-46.49 109.44,-48.03"/>
</g>
<!-- B1_1 -->
<g id="node9" class="node">
<title>B1_1</title>
<ellipse fill="none" stroke="black" cx="224.39" cy="-18" rx="30.88" ry="18"/>
<text text-anchor="middle" x="224.39" y="-12.95" font-family="Times,serif" font-size="14.00">B1_1</text>
</g>
<!-- B1&#45;&gt;B1_1 -->
<g id="edge9" class="edge">
<title>B1&#45;&gt;B1_1</title>
<path fill="none" stroke="black" d="M250.51,-73.53C246.61,-65.41 241.82,-55.39 237.4,-46.17"/>
<polygon fill="black" stroke="black" points="240.6,-44.74 233.12,-37.24 234.29,-47.77 240.6,-44.74"/>
</g>
<!-- B1_2 -->
<g id="node10" class="node">
<title>B1_2</title>
<ellipse fill="none" stroke="black" cx="304.39" cy="-18" rx="30.88" ry="18"/>
<text text-anchor="middle" x="304.39" y="-12.95" font-family="Times,serif" font-size="14.00">B1_2</text>
</g>
<!-- B1&#45;&gt;B1_2 -->
<g id="edge10" class="edge">
<title>B1&#45;&gt;B1_2</title>
<path fill="none" stroke="black" d="M268.83,-73.89C274.42,-65.27 281.43,-54.44 287.75,-44.69"/>
<polygon fill="black" stroke="black" points="290.67,-46.61 293.17,-36.32 284.8,-42.81 290.67,-46.61"/>
</g>
</g>
</svg>
