<?xml version="1.0" encoding="UTF-8" standalone="no"?>
<!DOCTYPE svg PUBLIC "-//W3C//DTD SVG 1.1//EN"
 "http://www.w3.org/Graphics/SVG/1.1/DTD/svg11.dtd">
<!-- Generated by graphviz version 12.2.1 (20241206.2353)
 -->
<!-- Title: G Pages: 1 -->
<svg width="577pt" height="287pt"
 viewBox="0.00 0.00 577.39 287.00" xmlns="http://www.w3.org/2000/svg" xmlns:xlink="http://www.w3.org/1999/xlink">
<g id="graph0" class="graph" transform="scale(1 1) rotate(0) translate(4 283)">
<title>G</title>
<polygon fill="white" stroke="none" points="-4,4 -4,-283 573.39,-283 573.39,4 -4,4"/>
<!-- P1 -->
<g id="node1" class="node">
<title>P1</title>
<ellipse fill="none" stroke="black" cx="298.39" cy="-257" rx="27" ry="18"/>
<ellipse fill="none" stroke="black" cx="298.39" cy="-257" rx="31" ry="22"/>
<text text-anchor="middle" x="298.39" y="-251.95" font-family="Times,serif" font-size="14.00">P1</text>
</g>
<!-- ClassA -->
<g id="node2" class="node">
<title>ClassA</title>
<ellipse fill="none" stroke="black" cx="174.39" cy="-176" rx="37.53" ry="18"/>
<ellipse fill="none" stroke="black" cx="174.39" cy="-176" rx="41.53" ry="22"/>
<text text-anchor="middle" x="174.39" y="-170.95" font-family="Times,serif" font-size="14.00">ClassA</text>
</g>
<!-- P1&#45;&gt;ClassA -->
<g id="edge1" class="edge">
<title>P1&#45;&gt;ClassA</title>
<path fill="none" stroke="black" d="M275.65,-241.51C257.3,-229.82 231.16,-213.17 210.03,-199.71"/>
<polygon fill="black" stroke="black" points="212.01,-196.82 201.7,-194.4 208.25,-202.72 212.01,-196.82"/>
</g>
<!-- ClassB -->
<g id="node3" class="node">
<title>ClassB</title>
<ellipse fill="none" stroke="black" cx="298.39" cy="-176" rx="37.02" ry="18"/>
<ellipse fill="none" stroke="black" cx="298.39" cy="-176" rx="41.02" ry="22"/>
<text text-anchor="middle" x="298.39" y="-170.95" font-family="Times,serif" font-size="14.00">ClassB</text>
</g>
<!-- P1&#45;&gt;ClassB -->
<g id="edge2" class="edge">
<title>P1&#45;&gt;ClassB</title>
<path fill="none" stroke="black" d="M298.39,-234.83C298.39,-227.04 298.39,-218.02 298.39,-209.46"/>
<polygon fill="black" stroke="black" points="301.89,-209.74 298.39,-199.74 294.89,-209.74 301.89,-209.74"/>
</g>
<!-- ClassC -->
<g id="node4" class="node">
<title>ClassC</title>
<ellipse fill="none" stroke="black" cx="422.39" cy="-176" rx="37.02" ry="18"/>
<ellipse fill="none" stroke="black" cx="422.39" cy="-176" rx="41.02" ry="22"/>
<text text-anchor="middle" x="422.39" y="-170.95" font-family="Times,serif" font-size="14.00">ClassC</text>
</g>
<!-- P1&#45;&gt;ClassC -->
<g id="edge3" class="edge">
<title>P1&#45;&gt;ClassC</title>
<path fill="none" stroke="black" d="M321.13,-241.51C339.6,-229.74 365.97,-212.95 387.17,-199.44"/>
<polygon fill="black" stroke="black" points="388.97,-202.44 395.52,-194.12 385.21,-196.54 388.97,-202.44"/>
</g>
<!-- ClassA&#45;&gt;ClassB -->
<g id="edge17" class="edge">
<title>ClassA&#45;&gt;ClassB</title>
<path fill="none" stroke="orange" stroke-dasharray="5,2" d="M216.37,-176C225.76,-176 235.84,-176 245.61,-176"/>
<polygon fill="orange" stroke="orange" points="245.36,-179.5 255.36,-176 245.36,-172.5 245.36,-179.5"/>
<text text-anchor="middle" x="236.65" y="-182.2" font-family="Times,serif" font-size="14.00">base</text>
</g>
<!-- A1 -->
<g id="node5" class="node">
<title>A1</title>
<ellipse fill="none" stroke="black" cx="98.39" cy="-95" rx="27" ry="18"/>
<ellipse fill="none" stroke="black" cx="98.39" cy="-95" rx="31" ry="22"/>
<text text-anchor="middle" x="98.39" y="-89.95" font-family="Times,serif" font-size="14.00">A1</text>
</g>
<!-- ClassA&#45;&gt;A1 -->
<g id="edge4" class="edge">
<title>ClassA&#45;&gt;A1</title>
<path fill="none" stroke="black" d="M155.99,-155.88C146.12,-145.61 133.82,-132.83 123.12,-121.71"/>
<polygon fill="black" stroke="black" points="125.82,-119.47 116.37,-114.69 120.78,-124.32 125.82,-119.47"/>
</g>
<!-- A2 -->
<g id="node7" class="node">
<title>A2</title>
<ellipse fill="none" stroke="black" cx="174.39" cy="-95" rx="27" ry="18"/>
<text text-anchor="middle" x="174.39" y="-89.95" font-family="Times,serif" font-size="14.00">A2</text>
</g>
<!-- ClassA&#45;&gt;A2 -->
<g id="edge5" class="edge">
<title>ClassA&#45;&gt;A2</title>
<path fill="none" stroke="black" d="M174.39,-153.83C174.39,-144.96 174.39,-134.51 174.39,-124.94"/>
<polygon fill="black" stroke="black" points="177.89,-125.01 174.39,-115.01 170.89,-125.01 177.89,-125.01"/>
</g>
<!-- ClassB&#45;&gt;ClassC -->
<g id="edge12" class="edge">
<title>ClassB&#45;&gt;ClassC</title>
<path fill="none" stroke="orange" stroke-dasharray="5,2" d="M339.68,-176C349.41,-176 359.9,-176 370.04,-176"/>
<polygon fill="orange" stroke="orange" points="369.77,-179.5 379.77,-176 369.77,-172.5 369.77,-179.5"/>
<text text-anchor="middle" x="360.39" y="-182.2" font-family="Times,serif" font-size="14.00">base</text>
</g>
<!-- B1 -->
<g id="node10" class="node">
<title>B1</title>
<ellipse fill="none" stroke="black" cx="246.39" cy="-95" rx="27" ry="18"/>
<text text-anchor="middle" x="246.39" y="-89.95" font-family="Times,serif" font-size="14.00">B1</text>
</g>
<!-- ClassB&#45;&gt;B1 -->
<g id="edge8" class="edge">
<title>ClassB&#45;&gt;B1</title>
<path fill="none" stroke="black" d="M285.27,-155.06C278.54,-144.85 270.28,-132.29 263.1,-121.39"/>
<polygon fill="black" stroke="black" points="266.14,-119.64 257.72,-113.22 260.3,-123.49 266.14,-119.64"/>
</g>
<!-- B2 -->
<g id="node13" class="node">
<title>B2</title>
<ellipse fill="none" stroke="black" cx="318.39" cy="-95" rx="27" ry="18"/>
<text text-anchor="middle" x="318.39" y="-89.95" font-family="Times,serif" font-size="14.00">B2</text>
</g>
<!-- ClassB&#45;&gt;B2 -->
<g id="edge11" class="edge">
<title>ClassB&#45;&gt;B2</title>
<path fill="none" stroke="black" d="M303.75,-153.83C306.06,-144.7 308.8,-133.89 311.28,-124.1"/>
<polygon fill="black" stroke="black" points="314.59,-125.26 313.66,-114.7 307.81,-123.54 314.59,-125.26"/>
</g>
<!-- C3 -->
<g id="node6" class="node">
<title>C3</title>
<ellipse fill="none" stroke="black" cx="394.39" cy="-95" rx="27" ry="18"/>
<ellipse fill="none" stroke="black" cx="394.39" cy="-95" rx="31" ry="22"/>
<text text-anchor="middle" x="394.39" y="-89.95" font-family="Times,serif" font-size="14.00">C3</text>
</g>
<!-- ClassC&#45;&gt;C3 -->
<g id="edge15" class="edge">
<title>ClassC&#45;&gt;C3</title>
<path fill="none" stroke="black" d="M415.03,-154.24C412.11,-145.99 408.68,-136.31 405.46,-127.24"/>
<polygon fill="black" stroke="black" points="408.84,-126.3 402.2,-118.04 402.25,-128.64 408.84,-126.3"/>
</g>
<!-- C1 -->
<g id="node14" class="node">
<title>C1</title>
<ellipse fill="none" stroke="black" cx="470.39" cy="-95" rx="27" ry="18"/>
<text text-anchor="middle" x="470.39" y="-89.95" font-family="Times,serif" font-size="14.00">C1</text>
</g>
<!-- ClassC&#45;&gt;C1 -->
<g id="edge13" class="edge">
<title>ClassC&#45;&gt;C1</title>
<path fill="none" stroke="black" d="M434.75,-154.66C440.86,-144.61 448.29,-132.38 454.78,-121.69"/>
<polygon fill="black" stroke="black" points="457.66,-123.7 459.86,-113.34 451.67,-120.06 457.66,-123.7"/>
</g>
<!-- C2 -->
<g id="node15" class="node">
<title>C2</title>
<ellipse fill="none" stroke="black" cx="542.39" cy="-95" rx="27" ry="18"/>
<text text-anchor="middle" x="542.39" y="-89.95" font-family="Times,serif" font-size="14.00">C2</text>
</g>
<!-- ClassC&#45;&gt;C2 -->
<g id="edge14" class="edge">
<title>ClassC&#45;&gt;C2</title>
<path fill="none" stroke="black" d="M447.84,-158.25C467.26,-145.46 494.01,-127.85 514.1,-114.62"/>
<polygon fill="black" stroke="black" points="515.96,-117.59 522.38,-109.17 512.11,-111.75 515.96,-117.59"/>
</g>
<!-- A1_1 -->
<g id="node8" class="node">
<title>A1_1</title>
<ellipse fill="none" stroke="black" cx="31.39" cy="-18" rx="31.39" ry="18"/>
<text text-anchor="middle" x="31.39" y="-12.95" font-family="Times,serif" font-size="14.00">A1_1</text>
</g>
<!-- A1&#45;&gt;A1_1 -->
<g id="edge6" class="edge">
<title>A1&#45;&gt;A1_1</title>
<path fill="none" stroke="black" d="M82.17,-75.84C73.34,-65.95 62.29,-53.59 52.76,-42.93"/>
<polygon fill="black" stroke="black" points="55.48,-40.71 46.21,-35.58 50.26,-45.37 55.48,-40.71"/>
</g>
<!-- A1_2 -->
<g id="node9" class="node">
<title>A1_2</title>
<ellipse fill="none" stroke="black" cx="112.39" cy="-18" rx="31.39" ry="18"/>
<text text-anchor="middle" x="112.39" y="-12.95" font-family="Times,serif" font-size="14.00">A1_2</text>
</g>
<!-- A1&#45;&gt;A1_2 -->
<g id="edge7" class="edge">
<title>A1&#45;&gt;A1_2</title>
<path fill="none" stroke="black" d="M102.37,-72.71C103.84,-64.82 105.53,-55.75 107.1,-47.33"/>
<polygon fill="black" stroke="black" points="110.53,-48.02 108.93,-37.55 103.65,-46.74 110.53,-48.02"/>
</g>
<!-- C3_1 -->
<g id="node16" class="node">
<title>C3_1</title>
<ellipse fill="none" stroke="black" cx="394.39" cy="-18" rx="30.88" ry="18"/>
<text text-anchor="middle" x="394.39" y="-12.95" font-family="Times,serif" font-size="14.00">C3_1</text>
</g>
<!-- C3&#45;&gt;C3_1 -->
<g id="edge16" class="edge">
<title>C3&#45;&gt;C3_1</title>
<path fill="none" stroke="black" d="M394.39,-72.71C394.39,-64.82 394.39,-55.75 394.39,-47.33"/>
<polygon fill="black" stroke="black" points="397.89,-47.57 394.39,-37.57 390.89,-47.57 397.89,-47.57"/>
</g>
<!-- B1_1 -->
<g id="node11" class="node">
<title>B1_1</title>
<ellipse fill="none" stroke="black" cx="220.39" cy="-18" rx="30.88" ry="18"/>
<text text-anchor="middle" x="220.39" y="-12.95" font-family="Times,serif" font-size="14.00">B1_1</text>
</g>
<!-- B1&#45;&gt;B1_1 -->
<g id="edge9" class="edge">
<title>B1&#45;&gt;B1_1</title>
<path fill="none" stroke="black" d="M240.49,-76.98C237.4,-68.06 233.54,-56.92 230.02,-46.78"/>
<polygon fill="black" stroke="black" points="233.35,-45.68 226.76,-37.38 226.73,-47.98 233.35,-45.68"/>
</g>
<!-- B1_2 -->
<g id="node12" class="node">
<title>B1_2</title>
<ellipse fill="none" stroke="black" cx="300.39" cy="-18" rx="30.88" ry="18"/>
<text text-anchor="middle" x="300.39" y="-12.95" font-family="Times,serif" font-size="14.00">B1_2</text>
</g>
<!-- B1&#45;&gt;B1_2 -->
<g id="edge10" class="edge">
<title>B1&#45;&gt;B1_2</title>
<path fill="none" stroke="black" d="M257.58,-78.46C264.72,-68.54 274.15,-55.45 282.33,-44.08"/>
<polygon fill="black" stroke="black" points="284.96,-46.43 287.96,-36.27 279.28,-42.34 284.96,-46.43"/>
</g>
</g>
</svg>
