<?xml version="1.0" encoding="UTF-8" standalone="no"?>
<!DOCTYPE svg PUBLIC "-//W3C//DTD SVG 1.1//EN"
 "http://www.w3.org/Graphics/SVG/1.1/DTD/svg11.dtd">
<!-- Generated by graphviz version 12.2.1 (20241206.2353)
 -->
<!-- Title: G Pages: 1 -->
<svg width="335pt" height="263pt"
 viewBox="0.00 0.00 335.39 263.00" xmlns="http://www.w3.org/2000/svg" xmlns:xlink="http://www.w3.org/1999/xlink">
<g id="graph0" class="graph" transform="scale(1 1) rotate(0) translate(4 259)">
<title>G</title>
<polygon fill="white" stroke="none" points="-4,4 -4,-259 331.39,-259 331.39,4 -4,4"/>
<!-- Mod1 -->
<g id="node1" class="node">
<title>Mod1</title>
<ellipse fill="none" stroke="black" cx="183.39" cy="-237" rx="33.44" ry="18"/>
<text text-anchor="middle" x="183.39" y="-231.95" font-family="Times,serif" font-size="14.00">Mod1</text>
</g>
<!-- ClassA -->
<g id="node2" class="node">
<title>ClassA</title>
<ellipse fill="none" stroke="black" cx="126.39" cy="-164" rx="37.53" ry="18"/>
<text text-anchor="middle" x="126.39" y="-158.95" font-family="Times,serif" font-size="14.00">ClassA</text>
</g>
<!-- Mod1&#45;&gt;ClassA -->
<g id="edge1" class="edge">
<title>Mod1&#45;&gt;ClassA</title>
<path fill="none" stroke="black" d="M170.74,-220.24C163.61,-211.36 154.54,-200.06 146.46,-189.99"/>
<polygon fill="black" stroke="black" points="149.34,-187.99 140.35,-182.39 143.88,-192.37 149.34,-187.99"/>
</g>
<!-- ClassB -->
<g id="node3" class="node">
<title>ClassB</title>
<ellipse fill="none" stroke="black" cx="242.39" cy="-164" rx="37.02" ry="18"/>
<text text-anchor="middle" x="242.39" y="-158.95" font-family="Times,serif" font-size="14.00">ClassB</text>
</g>
<!-- Mod1&#45;&gt;ClassB -->
<g id="edge2" class="edge">
<title>Mod1&#45;&gt;ClassB</title>
<path fill="none" stroke="black" d="M196.48,-220.24C203.87,-211.36 213.26,-200.06 221.62,-189.99"/>
<polygon fill="black" stroke="black" points="224.26,-192.3 227.96,-182.37 218.87,-187.82 224.26,-192.3"/>
</g>
<!-- ClassA&#45;&gt;ClassB -->
<g id="edge11" class="edge">
<title>ClassA&#45;&gt;ClassB</title>
<path fill="none" stroke="black" stroke-dasharray="5,2" d="M164.37,-164C173.78,-164 183.98,-164 193.81,-164"/>
<polygon fill="black" stroke="black" points="193.6,-167.5 203.6,-164 193.6,-160.5 193.6,-167.5"/>
<text text-anchor="middle" x="184.65" y="-170.2" font-family="Times,serif" font-size="14.00">base</text>
</g>
<!-- A1 -->
<g id="node4" class="node">
<title>A1</title>
<ellipse fill="none" stroke="black" cx="76.39" cy="-91" rx="27" ry="18"/>
<text text-anchor="middle" x="76.39" y="-85.95" font-family="Times,serif" font-size="14.00">A1</text>
</g>
<!-- ClassA&#45;&gt;A1 -->
<g id="edge3" class="edge">
<title>ClassA&#45;&gt;A1</title>
<path fill="none" stroke="black" d="M114.79,-146.53C108.65,-137.81 100.97,-126.9 94.1,-117.14"/>
<polygon fill="black" stroke="black" points="97.07,-115.29 88.45,-109.13 91.35,-119.32 97.07,-115.29"/>
</g>
<!-- A2 -->
<g id="node5" class="node">
<title>A2</title>
<ellipse fill="none" stroke="black" cx="148.39" cy="-91" rx="27" ry="18"/>
<text text-anchor="middle" x="148.39" y="-85.95" font-family="Times,serif" font-size="14.00">A2</text>
</g>
<!-- ClassA&#45;&gt;A2 -->
<g id="edge4" class="edge">
<title>ClassA&#45;&gt;A2</title>
<path fill="none" stroke="black" d="M131.72,-145.81C134.12,-138.05 137.02,-128.68 139.73,-119.95"/>
<polygon fill="black" stroke="black" points="143.05,-121.06 142.67,-110.47 136.36,-118.99 143.05,-121.06"/>
</g>
<!-- B1 -->
<g id="node8" class="node">
<title>B1</title>
<ellipse fill="none" stroke="black" cx="228.39" cy="-91" rx="27" ry="18"/>
<text text-anchor="middle" x="228.39" y="-85.95" font-family="Times,serif" font-size="14.00">B1</text>
</g>
<!-- ClassB&#45;&gt;B1 -->
<g id="edge7" class="edge">
<title>ClassB&#45;&gt;B1</title>
<path fill="none" stroke="black" d="M239,-145.81C237.49,-138.14 235.67,-128.89 233.96,-120.24"/>
<polygon fill="black" stroke="black" points="237.41,-119.65 232.04,-110.51 230.54,-121 237.41,-119.65"/>
</g>
<!-- B2 -->
<g id="node11" class="node">
<title>B2</title>
<ellipse fill="none" stroke="black" cx="300.39" cy="-91" rx="27" ry="18"/>
<text text-anchor="middle" x="300.39" y="-85.95" font-family="Times,serif" font-size="14.00">B2</text>
</g>
<!-- ClassB&#45;&gt;B2 -->
<g id="edge10" class="edge">
<title>ClassB&#45;&gt;B2</title>
<path fill="none" stroke="black" d="M255.55,-146.89C263.02,-137.74 272.52,-126.12 280.85,-115.92"/>
<polygon fill="black" stroke="black" points="283.5,-118.21 287.12,-108.25 278.08,-113.78 283.5,-118.21"/>
</g>
<!-- A1_1 -->
<g id="node6" class="node">
<title>A1_1</title>
<ellipse fill="none" stroke="black" cx="31.39" cy="-18" rx="31.39" ry="18"/>
<text text-anchor="middle" x="31.39" y="-12.95" font-family="Times,serif" font-size="14.00">A1_1</text>
</g>
<!-- A1&#45;&gt;A1_1 -->
<g id="edge5" class="edge">
<title>A1&#45;&gt;A1_1</title>
<path fill="none" stroke="black" d="M66.18,-73.89C60.71,-65.27 53.85,-54.44 47.67,-44.69"/>
<polygon fill="black" stroke="black" points="50.68,-42.9 42.37,-36.33 44.77,-46.65 50.68,-42.9"/>
</g>
<!-- A1_2 -->
<g id="node7" class="node">
<title>A1_2</title>
<ellipse fill="none" stroke="black" cx="112.39" cy="-18" rx="31.39" ry="18"/>
<text text-anchor="middle" x="112.39" y="-12.95" font-family="Times,serif" font-size="14.00">A1_2</text>
</g>
<!-- A1&#45;&gt;A1_2 -->
<g id="edge6" class="edge">
<title>A1&#45;&gt;A1_2</title>
<path fill="none" stroke="black" d="M84.74,-73.53C88.97,-65.2 94.2,-54.88 98.97,-45.47"/>
<polygon fill="black" stroke="black" points="102,-47.23 103.4,-36.73 95.76,-44.06 102,-47.23"/>
</g>
<!-- B1_1 -->
<g id="node9" class="node">
<title>B1_1</title>
<ellipse fill="none" stroke="black" cx="210.39" cy="-18" rx="30.88" ry="18"/>
<text text-anchor="middle" x="210.39" y="-12.95" font-family="Times,serif" font-size="14.00">B1_1</text>
</g>
<!-- B1&#45;&gt;B1_1 -->
<g id="edge8" class="edge">
<title>B1&#45;&gt;B1_1</title>
<path fill="none" stroke="black" d="M224.03,-72.81C222.07,-65.05 219.69,-55.68 217.48,-46.95"/>
<polygon fill="black" stroke="black" points="220.93,-46.33 215.08,-37.5 214.14,-48.05 220.93,-46.33"/>
</g>
<!-- B1_2 -->
<g id="node10" class="node">
<title>B1_2</title>
<ellipse fill="none" stroke="black" cx="290.39" cy="-18" rx="30.88" ry="18"/>
<text text-anchor="middle" x="290.39" y="-12.95" font-family="Times,serif" font-size="14.00">B1_2</text>
</g>
<!-- B1&#45;&gt;B1_2 -->
<g id="edge9" class="edge">
<title>B1&#45;&gt;B1_2</title>
<path fill="none" stroke="black" d="M241.54,-74.94C249.65,-65.66 260.23,-53.54 269.47,-42.96"/>
<polygon fill="black" stroke="black" points="271.9,-45.5 275.84,-35.67 266.62,-40.9 271.9,-45.5"/>
</g>
</g>
</svg>
