<?xml version="1.0" encoding="UTF-8" standalone="no"?>
<!DOCTYPE svg PUBLIC "-//W3C//DTD SVG 1.1//EN"
 "http://www.w3.org/Graphics/SVG/1.1/DTD/svg11.dtd">
<!-- Generated by graphviz version 12.2.1 (20241206.2353)
 -->
<!-- Pages: 1 -->
<svg width="182pt" height="155pt"
 viewBox="0.00 0.00 182.00 154.50" xmlns="http://www.w3.org/2000/svg" xmlns:xlink="http://www.w3.org/1999/xlink">
<g id="graph0" class="graph" transform="scale(1 1) rotate(0) translate(4 150.5)">
<polygon fill="white" stroke="none" points="-4,4 -4,-150.5 178,-150.5 178,4 -4,4"/>
<g id="clust1" class="cluster">
<title>cluster_01</title>
<polygon fill="none" stroke="black" points="8,-8 8,-138.5 166,-138.5 166,-8 8,-8"/>
<text text-anchor="middle" x="87" y="-121.2" font-family="Times,serif" font-size="14.00">Legend</text>
</g>
<!-- key -->
<g id="node1" class="node">
<title>key</title>
<text text-anchor="start" x="39.38" y="-86.7" font-family="Times,serif" font-size="14.00">import</text>
<text text-anchor="start" x="49.12" y="-66.2" font-family="Times,serif" font-size="14.00">child</text>
<text text-anchor="start" x="25.88" y="-45.7" font-family="Times,serif" font-size="14.00">reference</text>
<text text-anchor="start" x="40.88" y="-25.2" font-family="Times,serif" font-size="14.00">item 4</text>
</g>
<!-- key2 -->
<g id="node2" class="node">
<title>key2</title>
<text text-anchor="start" x="129.12" y="-86.7" font-family="Times,serif" font-size="14.00"> </text>
<text text-anchor="start" x="129.12" y="-66.2" font-family="Times,serif" font-size="14.00"> </text>
<text text-anchor="start" x="129.12" y="-45.7" font-family="Times,serif" font-size="14.00"> </text>
<text text-anchor="start" x="129.12" y="-25.2" font-family="Times,serif" font-size="14.00"> </text>
</g>
<!-- key&#45;&gt;key2 -->
<g id="edge1" class="edge">
<title>key:e&#45;&gt;key2:w</title>
<path fill="none" stroke="magenta" stroke-dasharray="5,2" d="M79.12,-91.75C95.61,-91.75 102.34,-91.75 114.7,-91.75"/>
<polygon fill="magenta" stroke="magenta" points="114.61,-95.25 124.61,-91.75 114.61,-88.25 114.61,-95.25"/>
</g>
<!-- key&#45;&gt;key2 -->
<g id="edge2" class="edge">
<title>key:e&#45;&gt;key2:w</title>
<path fill="none" stroke="black" d="M79.12,-71.25C95.61,-71.25 102.34,-71.25 114.7,-71.25"/>
<polygon fill="black" stroke="black" points="114.61,-74.75 124.61,-71.25 114.61,-67.75 114.61,-74.75"/>
</g>
<!-- key&#45;&gt;key2 -->
<g id="edge3" class="edge">
<title>key:e&#45;&gt;key2:w</title>
<path fill="none" stroke="black" stroke-dasharray="5,2" d="M79.12,-50.75C95.61,-50.75 102.34,-50.75 114.7,-50.75"/>
<polygon fill="black" stroke="black" points="114.61,-54.25 124.61,-50.75 114.61,-47.25 114.61,-54.25"/>
</g>
<!-- key&#45;&gt;key2 -->
<g id="edge4" class="edge">
<title>key:e&#45;&gt;key2:w</title>
<path fill="none" stroke="black" d="M79.12,-30.25C95.61,-30.25 102.34,-30.25 114.7,-30.25"/>
<polygon fill="black" stroke="black" points="114.61,-33.75 124.61,-30.25 114.61,-26.75 114.61,-33.75"/>
</g>
</g>
</svg>
