<?xml version="1.0" encoding="UTF-8" standalone="no"?>
<!-- Created with Inkscape (http://www.inkscape.org/) -->

<svg
   xmlns:dc="http://purl.org/dc/elements/1.1/"
   xmlns:cc="http://creativecommons.org/ns#"
   xmlns:rdf="http://www.w3.org/1999/02/22-rdf-syntax-ns#"
   xmlns:svg="http://www.w3.org/2000/svg"
   xmlns="http://www.w3.org/2000/svg"
   xmlns:sodipodi="http://sodipodi.sourceforge.net/DTD/sodipodi-0.dtd"
   xmlns:inkscape="http://www.inkscape.org/namespaces/inkscape"
   width="210mm"
   height="297mm"
   viewBox="0 0 744.09448819 1052.3622047"
   id="svg12852"
   version="1.1"
   inkscape:version="0.91 r13725"
   sodipodi:docname="logo.svg">
  <defs
     id="defs12854" />
  <sodipodi:namedview
     id="base"
     pagecolor="#ffffff"
     bordercolor="#666666"
     borderopacity="1.0"
     inkscape:pageopacity="0.0"
     inkscape:pageshadow="2"
     inkscape:zoom="1.0076756"
     inkscape:cx="108.52518"
     inkscape:cy="520"
     inkscape:document-units="px"
     inkscape:current-layer="layer1"
     showgrid="false"
     inkscape:window-width="2560"
     inkscape:window-height="1377"
     inkscape:window-x="-8"
     inkscape:window-y="-8"
     inkscape:window-maximized="1" />
  <metadata
     id="metadata12857">
    <rdf:RDF>
      <cc:Work
         rdf:about="">
        <dc:format>image/svg+xml</dc:format>
        <dc:type
           rdf:resource="http://purl.org/dc/dcmitype/StillImage" />
        <dc:title></dc:title>
      </cc:Work>
    </rdf:RDF>
  </metadata>
  <g
     inkscape:label="Layer 1"
     inkscape:groupmode="layer"
     id="layer1">
    <rect
       style="color:#000000;clip-rule:nonzero;display:inline;overflow:visible;visibility:visible;opacity:1;isolation:auto;mix-blend-mode:normal;color-interpolation:sRGB;color-interpolation-filters:linearRGB;solid-color:#000000;solid-opacity:1;fill:#d3e3fd;fill-opacity:1;fill-rule:nonzero;stroke:#00008b;stroke-width:8;stroke-linecap:round;stroke-linejoin:round;stroke-miterlimit:4;stroke-dasharray:none;stroke-dashoffset:0;stroke-opacity:1;color-rendering:auto;image-rendering:auto;shape-rendering:auto;text-rendering:auto;enable-background:accumulate"
       id="rect4653-9"
       width="28.136593"
       height="60.789646"
       x="191.7144"
       y="158.14787"
       ry="9.1511297" />
    <path
       style="color:#000000;clip-rule:nonzero;display:inline;overflow:visible;visibility:visible;opacity:1;isolation:auto;mix-blend-mode:normal;color-interpolation:sRGB;color-interpolation-filters:linearRGB;solid-color:#000000;solid-opacity:1;fill:#00008b;fill-opacity:1;fill-rule:nonzero;stroke:none;stroke-width:2;stroke-linecap:round;stroke-linejoin:round;stroke-miterlimit:4;stroke-dasharray:none;stroke-dashoffset:0;stroke-opacity:0.89803922;color-rendering:auto;image-rendering:auto;shape-rendering:auto;text-rendering:auto;enable-background:accumulate"
       d="m 302.60768,79.130822 c 0,0 290.16396,-42.622918 290.16396,-42.622918 0,0 -4.91804,301.639316 -4.91804,301.639316 0,0 -285.24592,-47.54098 -285.24592,-47.54098 0,0 0,-211.475418 0,-211.475418"
       id="rect4497-2-78-7"
       inkscape:connector-curvature="0" />
    <g
       style="font-style:normal;font-variant:normal;font-weight:bold;font-stretch:normal;font-size:60px;line-height:125%;font-family:Gotham;-inkscape-font-specification:'Gotham, Bold';text-align:start;letter-spacing:0px;word-spacing:0px;writing-mode:lr-tb;text-anchor:start;fill:#d3e3fd;fill-opacity:1;stroke:none;stroke-width:1px;stroke-linecap:butt;stroke-linejoin:miter;stroke-opacity:1"
       id="text4136-3-9-87-8-4-0"
       transform="matrix(4,0,0,4,-1377.7202,-2281.1378)">
      <path
         d="m 423.86799,638.14833 c 0,0 5.87337,0.79428 5.87337,0.79428 0,0 0.0285,-12.97709 0.0285,-12.97709 0,0 4.75201,0.29667 4.75201,0.29667 6.7894,0.42386 12.64883,-4.9318 12.71689,-16.00388 0,0 8.4e-4,-0.13704 8.4e-4,-0.13704 0.0604,-9.82045 -4.63405,-16.12837 -11.98228,-15.3271 0,0 -11.35307,1.23797 -11.35307,1.23797 0,0 -0.0363,42.11619 -0.0363,42.11619 0,0 0,0 0,0 m 5.92064,-20.69024 c 0,0 0.0294,-13.35499 0.0294,-13.35499 0,0 4.86142,-0.29252 4.86142,-0.29252 3.28939,-0.19793 5.3893,2.12333 5.36869,6.68181 0,0 -5.9e-4,0.13199 -5.9e-4,0.13199 -0.0179,3.95602 -2.00506,6.95514 -5.28779,6.90685 0,0 -4.97112,-0.0731 -4.97112,-0.0731 0,0 0,0 0,0"
         id="path5129-8"
         inkscape:connector-curvature="0"
         style="fill:#d3e3fd;fill-opacity:1" />
    </g>
    <g
       style="font-style:normal;font-variant:normal;font-weight:bold;font-stretch:normal;font-size:60px;line-height:125%;font-family:'Bauhaus Md BT';-inkscape-font-specification:'Bauhaus Md BT, Bold';text-align:start;letter-spacing:0px;word-spacing:0px;writing-mode:lr-tb;text-anchor:start;fill:#d3e3fd;fill-opacity:1;stroke:none;stroke-width:1px;stroke-linecap:butt;stroke-linejoin:miter;stroke-opacity:1"
       id="text4140-7-39-1-0-83-2"
       transform="matrix(4,0,0,4,-1377.7202,-2281.1378)">
      <path
         d="m 467.40631,644.03623 c 0,0 0.56936,-52.75017 0.56936,-52.75017 0,0 10.71114,-1.16502 10.71114,-1.16502 0,0 -0.73073,55.34189 -0.73073,55.34189 0,0 -10.54977,-1.4267 -10.54977,-1.4267 0,0 0,0 0,0"
         id="path5113-2"
         inkscape:connector-curvature="0"
         style="fill:#d3e3fd;fill-opacity:1" />
    </g>
    <g
       style="font-style:normal;font-variant:normal;font-weight:normal;font-stretch:normal;font-size:15px;line-height:125%;font-family:Gotham;-inkscape-font-specification:'Gotham, Normal';text-align:start;letter-spacing:0px;word-spacing:0px;writing-mode:lr-tb;text-anchor:start;fill:#d3e3fd;fill-opacity:1;stroke:none;stroke-width:1px;stroke-linecap:butt;stroke-linejoin:miter;stroke-opacity:1"
       id="text4144-4-2-0-5-33-4"
       transform="matrix(4,0,0,4,-1377.7202,-2281.1378)">
      <path
         d="m 431.13684,639.13133 c 0,0 1.92312,0.26007 1.92312,0.26007 0,0 0.008,-2.63725 0.008,-2.63725 0.006,-1.9643 0.58392,-2.80021 1.61024,-2.6925 0,0 0.16696,0.0175 0.16696,0.0175 0,0 0.0107,-3.17837 0.0107,-3.17837 -0.93572,-0.14529 -1.45386,0.56693 -1.77561,1.70268 0,0 0.005,-1.71601 0.005,-1.71601 0,0 -1.92707,-0.17034 -1.92707,-0.17034 0,0 -0.0212,8.4142 -0.0212,8.4142 0,0 0,0 0,0"
         id="path5116-3"
         inkscape:connector-curvature="0"
         style="fill:#d3e3fd;fill-opacity:1" />
      <path
         d="m 438.36536,640.31886 c 1.90469,0.25972 3.3188,-1.66896 3.33127,-4.2026 0,0 1.6e-4,-0.0329 1.6e-4,-0.0329 0.0125,-2.5366 -1.3731,-4.75262 -3.27156,-4.91845 -1.87132,-0.16346 -3.21026,1.7749 -3.2187,4.22528 0,0 -1.1e-4,0.0318 -1.1e-4,0.0318 -0.008,2.44761 1.30291,4.64381 3.15894,4.89689 0,0 0,0 0,0 m 0.0325,-2.59787 c -0.72384,-0.0886 -1.23548,-1.05109 -1.23136,-2.11155 0,0 1.3e-4,-0.0321 1.3e-4,-0.0321 0.004,-1.04492 0.48006,-1.88159 1.22599,-1.80602 0.73005,0.074 1.25252,1.03988 1.24773,2.11493 0,0 -1.5e-4,0.0326 -1.5e-4,0.0326 -0.005,1.05823 -0.49098,1.8942 -1.24234,1.80221 0,0 0,0 0,0"
         id="path5118-52"
         inkscape:connector-curvature="0"
         style="fill:#d3e3fd;fill-opacity:1" />
      <path
         d="m 442.62981,630.91852 c 0,0 2.27585,0.19149 2.27585,0.19149 0,0 0.0133,-2.34994 0.0133,-2.34994 0,0 -2.27721,-0.16393 -2.27721,-0.16393 0,0 -0.0119,2.32238 -0.0119,2.32238 0,0 0,0 0,0 m -0.0525,12.45084 c 1.40312,0.20951 2.21558,-0.50386 2.22847,-2.79059 0,0 0.0487,-8.65098 0.0487,-8.65098 0,0 -2.18344,-0.193 -2.18344,-0.193 0,0 -0.0433,8.42177 -0.0433,8.42177 -0.004,0.77602 -0.22046,1.01047 -0.63799,0.95288 -0.09,-0.0124 -0.19122,-0.0264 -0.281,-0.0552 0,0 -0.0102,2.06894 -0.0102,2.06894 0.25818,0.0877 0.53954,0.19553 0.87867,0.24617 0,0 0,0 0,0"
         id="path5120-8"
         inkscape:connector-curvature="0"
         style="fill:#d3e3fd;fill-opacity:1" />
      <path
         d="m 449.27166,641.80603 c 1.31962,0.17994 2.25187,-0.45377 2.90804,-1.5122 0,0 -1.29364,-1.66499 -1.29364,-1.66499 -0.48479,0.59623 -0.92799,0.83379 -1.47672,0.76571 -0.71487,-0.0887 -1.22937,-0.66308 -1.40299,-1.68764 0,0 4.43919,0.51663 4.43919,0.51663 0.0142,-0.22451 0.016,-0.46789 0.0175,-0.67653 0.0204,-2.76628 -1.03646,-5.24645 -3.3336,-5.4471 -1.92398,-0.16807 -3.27272,1.82108 -3.28832,4.48003 0,0 -2e-4,0.0336 -2e-4,0.0336 -0.0166,2.82367 1.3886,4.914 3.4307,5.19246 0,0 0,0 0,0 m -1.2908,-5.75249 c 0.1264,-0.99138 0.53992,-1.61479 1.14491,-1.5546 0.63314,0.063 1.05711,0.75952 1.13591,1.80088 0,0 -2.28082,-0.24628 -2.28082,-0.24628 0,0 0,0 0,0"
         id="path5122-2"
         inkscape:connector-curvature="0"
         style="fill:#d3e3fd;fill-opacity:1" />
      <path
         d="m 456.81262,642.8343 c 1.56851,0.21388 2.53724,-0.55245 3.22197,-1.79664 0,0 -1.6862,-1.85857 -1.6862,-1.85857 -0.40322,0.57792 -0.78947,0.90575 -1.38101,0.83327 -0.83547,-0.10237 -1.39836,-1.10735 -1.38837,-2.34298 0,0 2.8e-4,-0.0353 2.8e-4,-0.0353 0.009,-1.16568 0.60127,-2.0607 1.39846,-1.97994 0.60527,0.0613 0.98546,0.47558 1.32478,1.15564 0,0 1.74407,-1.54972 1.74407,-1.54972 -0.60811,-1.37579 -1.59046,-2.3275 -3.05805,-2.45582 -2.22061,-0.19417 -3.75486,1.92854 -3.77502,4.60051 0,0 -2.6e-4,0.0349 -2.6e-4,0.0349 -0.0201,2.66868 1.48909,5.1069 3.59935,5.39465 0,0 0,0 0,0"
         id="path5124-0"
         inkscape:connector-curvature="0"
         style="fill:#d3e3fd;fill-opacity:1" />
      <path
         d="m 463.88107,643.76143 c 0.74444,0.10138 1.3829,-0.0334 1.86978,-0.31951 0,0 0.0287,-2.75779 0.0287,-2.75779 -0.3295,0.16391 -0.67139,0.25173 -1.02497,0.20853 -0.49306,-0.0602 -0.72877,-0.38328 -0.72178,-1.08143 0,0 0.0337,-3.36524 0.0337,-3.36524 0,0 1.78388,0.18134 1.78388,0.18134 0,0 0.0296,-2.84107 0.0296,-2.84107 0,0 -1.78528,-0.1578 -1.78528,-0.1578 0,0 0.0253,-2.52596 0.0253,-2.52596 0,0 -2.63837,-0.20184 -2.63837,-0.20184 0,0 -0.0235,2.49475 -0.0235,2.49475 0,0 -0.87345,-0.0772 -0.87345,-0.0772 0,0 -0.0255,2.77124 -0.0255,2.77124 0,0 0.87278,0.0887 0.87278,0.0887 0,0 -0.0376,3.99518 -0.0376,3.99518 -0.022,2.33925 0.90295,3.3724 2.48671,3.58808 0,0 0,0 0,0"
         id="path5126-0"
         inkscape:connector-curvature="0"
         style="fill:#d3e3fd;fill-opacity:1" />
    </g>
    <g
       style="font-style:normal;font-variant:normal;font-weight:bold;font-stretch:normal;font-size:15px;line-height:125%;font-family:Gotham;-inkscape-font-specification:'Gotham, Bold';text-align:start;letter-spacing:0px;word-spacing:0px;writing-mode:lr-tb;text-anchor:start;fill:#d3e3fd;fill-opacity:1;stroke:none;stroke-width:1px;stroke-linecap:butt;stroke-linejoin:miter;stroke-opacity:1"
       id="text4148-1-9-6-8-6-7"
       transform="matrix(4,0,0,4,-1377.7202,-2281.1378)">
      <path
         d="m 483.04419,646.33115 c 0.85159,0.11582 1.47688,-0.0408 2.02301,-0.35076 0,0 0.0365,-2.46004 0.0365,-2.46004 -0.3757,0.19602 -0.79918,0.28457 -1.26935,0.22607 -0.56837,-0.0707 -0.81336,-0.44173 -0.80331,-1.14172 0,0 0.0658,-4.58547 0.0658,-4.58547 0,0 2.11927,0.21214 2.11927,0.21214 0,0 0.039,-2.63112 0.039,-2.63112 0,0 -2.12088,-0.18839 -2.12088,-0.18839 0,0 0.0395,-2.75112 0.0395,-2.75112 0,0 -2.50985,-0.1931 -2.50985,-0.1931 0,0 -0.0375,2.72146 -0.0375,2.72146 0,0 -1.03977,-0.0924 -1.03977,-0.0924 0,0 -0.0348,2.56765 -0.0348,2.56765 0,0 1.03901,0.104 1.03901,0.104 0,0 -0.0693,5.03082 -0.0693,5.03082 -0.0338,2.4518 0.98575,3.32289 2.52268,3.53194 0,0 0,0 0,0"
         id="path5110-6"
         inkscape:connector-curvature="0"
         style="fill:#d3e3fd;fill-opacity:1" />
    </g>
    <rect
       style="color:#000000;clip-rule:nonzero;display:inline;overflow:visible;visibility:visible;opacity:1;isolation:auto;mix-blend-mode:normal;color-interpolation:sRGB;color-interpolation-filters:linearRGB;solid-color:#000000;solid-opacity:1;fill:#d3e3fd;fill-opacity:1;fill-rule:nonzero;stroke:#00008b;stroke-width:8;stroke-linecap:round;stroke-linejoin:round;stroke-miterlimit:4;stroke-dasharray:none;stroke-dashoffset:0;stroke-opacity:1;color-rendering:auto;image-rendering:auto;shape-rendering:auto;text-rendering:auto;enable-background:accumulate"
       id="rect4653"
       width="96.59864"
       height="126.53061"
       x="103.57867"
       y="124.59723"
       ry="19.047619" />
    <circle
       style="color:#000000;clip-rule:nonzero;display:inline;overflow:visible;visibility:visible;opacity:1;isolation:auto;mix-blend-mode:normal;color-interpolation:sRGB;color-interpolation-filters:linearRGB;solid-color:#000000;solid-opacity:1;fill:#d3e3fd;fill-opacity:1;fill-rule:nonzero;stroke:#00008b;stroke-width:8;stroke-linecap:round;stroke-linejoin:round;stroke-miterlimit:4;stroke-dasharray:none;stroke-dashoffset:0;stroke-opacity:1;color-rendering:auto;image-rendering:auto;shape-rendering:auto;text-rendering:auto;enable-background:accumulate"
       id="path4700"
       cx="140.15009"
       cy="218.47478"
       r="14.965986" />
    <circle
       style="color:#000000;clip-rule:nonzero;display:inline;overflow:visible;visibility:visible;opacity:1;isolation:auto;mix-blend-mode:normal;color-interpolation:sRGB;color-interpolation-filters:linearRGB;solid-color:#000000;solid-opacity:1;fill:#d3e3fd;fill-opacity:1;fill-rule:nonzero;stroke:#00008b;stroke-width:8;stroke-linecap:round;stroke-linejoin:round;stroke-miterlimit:4;stroke-dasharray:none;stroke-dashoffset:0;stroke-opacity:1;color-rendering:auto;image-rendering:auto;shape-rendering:auto;text-rendering:auto;enable-background:accumulate"
       id="path4700-6"
       cx="140.15009"
       cy="159.97136"
       r="14.965986" />
    <path
       style="fill:none;fill-rule:evenodd;stroke:#00008b;stroke-width:8;stroke-linecap:butt;stroke-linejoin:miter;stroke-miterlimit:1;stroke-dasharray:16, 8;stroke-dashoffset:0;stroke-opacity:1"
       d="M 236.91196,169.49518 289.9732,116.43394"
       id="path4719"
       inkscape:connector-curvature="0" />
    <path
       style="fill:none;fill-rule:evenodd;stroke:#00008b;stroke-width:8;stroke-linecap:butt;stroke-linejoin:miter;stroke-miterlimit:1;stroke-dasharray:16, 8;stroke-dashoffset:0;stroke-opacity:1"
       d="m 236.23168,204.18906 53.06124,53.06124"
       id="path4719-6"
       inkscape:connector-curvature="0" />
  </g>
</svg>
